<?xml version="1.0" encoding="iso-8859-1"?>
<!-- Uploaded to: SVG Repo, www.svgrepo.com, Generator: SVG Repo Mixer Tools -->
<!DOCTYPE svg PUBLIC "-//W3C//DTD SVG 1.1//EN" "http://www.w3.org/Graphics/SVG/1.1/DTD/svg11.dtd">
<svg fill="#000000" version="1.1" id="Capa_1" xmlns="http://www.w3.org/2000/svg" xmlns:xlink="http://www.w3.org/1999/xlink" 
	 width="800px" height="800px" viewBox="0 0 172.586 172.586"
	 xml:space="preserve">
<g>
	<g>
		<path d="M88.483,67.809c-10.629,0-19.273,8.648-19.273,19.275c0,10.623,8.645,19.274,19.273,19.274
			c10.63,0,19.273-8.651,19.273-19.274C107.756,76.457,99.106,67.809,88.483,67.809z M88.483,99.349
			c-6.764,0-12.265-5.503-12.265-12.266c0-6.765,5.501-12.266,12.265-12.266c6.763,0,12.266,5.501,12.266,12.266
			C100.749,93.846,95.242,99.349,88.483,99.349z"/>
		<path d="M169.083,55.802h-53.194L89.31,10.832c-0.033-0.052-0.081-0.077-0.116-0.13c-0.134-0.199-0.309-0.359-0.483-0.532
			c-0.162-0.158-0.31-0.322-0.497-0.445c-0.054-0.039-0.081-0.09-0.141-0.126c-0.144-0.083-0.305-0.094-0.452-0.157
			C87.4,9.35,87.19,9.255,86.956,9.213c-0.225-0.046-0.438-0.042-0.667-0.042c-0.224,0-0.442-0.005-0.663,0.042
			c-0.234,0.046-0.448,0.137-0.669,0.231c-0.147,0.063-0.305,0.073-0.448,0.154c-0.057,0.033-0.084,0.087-0.137,0.124
			c-0.188,0.126-0.339,0.291-0.505,0.455c-0.171,0.173-0.346,0.33-0.476,0.525c-0.032,0.053-0.084,0.078-0.116,0.13L56.698,55.802
			H29.326H3.504C1.569,55.802,0,57.37,0,59.306v78.152v22.452c0,1.94,1.569,3.505,3.504,3.505h104.807h60.771
			c1.933,0,3.504-1.564,3.504-3.505V99.137V59.306C172.586,57.37,171.015,55.802,169.083,55.802z M86.293,19.501l21.458,36.301
			H64.836L86.293,19.501z M28.062,62.811c0.529,0.417,1.037,0.852,1.542,1.291c0.536,0.465,1.087,0.917,1.595,1.404
			c0.599,0.579,1.153,1.196,1.713,1.809c0.474,0.515,0.969,1.02,1.414,1.556c0.525,0.638,0.994,1.311,1.475,1.973
			c0.405,0.562,0.833,1.104,1.213,1.686c0.452,0.695,0.84,1.424,1.244,2.146c0.332,0.592,0.689,1.167,0.991,1.773
			c0.375,0.76,0.683,1.548,1.009,2.331c0.251,0.609,0.539,1.201,0.76,1.822c0.301,0.84,0.53,1.713,0.775,2.575
			c0.164,0.588,0.371,1.167,0.511,1.766c0.231,0.982,0.375,1.997,0.529,3c0.077,0.506,0.2,0.995,0.257,1.509
			c0.174,1.526,0.269,3.073,0.269,4.634c0,1.341-0.074,2.662-0.198,3.97c-0.046,0.438-0.134,0.862-0.19,1.3
			c-0.114,0.853-0.224,1.712-0.392,2.554c-0.103,0.51-0.246,0.999-0.364,1.502c-0.18,0.746-0.351,1.499-0.575,2.228
			c-0.157,0.517-0.354,1.027-0.532,1.533c-0.239,0.688-0.474,1.379-0.748,2.043c-0.214,0.514-0.455,1.01-0.686,1.517
			c-0.294,0.64-0.589,1.276-0.916,1.896c-0.262,0.503-0.553,0.982-0.837,1.472c-0.347,0.592-0.694,1.184-1.069,1.759
			c-0.308,0.476-0.64,0.935-0.974,1.393c-0.395,0.552-0.799,1.099-1.22,1.629c-0.354,0.445-0.726,0.876-1.097,1.308
			c-0.441,0.514-0.893,1.01-1.358,1.495c-0.397,0.414-0.803,0.814-1.22,1.212c-0.484,0.462-0.982,0.914-1.491,1.355
			c-0.433,0.373-0.876,0.742-1.328,1.098c-0.525,0.411-1.061,0.812-1.608,1.205c-0.469,0.335-0.943,0.66-1.425,0.972
			c-0.565,0.366-1.143,0.712-1.725,1.054c-0.501,0.291-1.002,0.579-1.518,0.843c-0.599,0.317-1.211,0.602-1.826,0.886
			c-0.529,0.24-1.054,0.489-1.598,0.705c-0.63,0.257-1.278,0.482-1.923,0.705c-0.549,0.195-1.097,0.391-1.661,0.562
			c-0.666,0.198-1.349,0.355-2.033,0.52c-0.566,0.138-1.128,0.288-1.703,0.397c-0.708,0.137-1.429,0.229-2.147,0.332
			c-0.572,0.075-1.136,0.178-1.714,0.229c-0.091,0.011-0.185,0.008-0.277,0.015V62.804h21.058V62.811z M7.008,140.833
			c0.221-0.018,0.438-0.065,0.659-0.082c0.71-0.062,1.404-0.164,2.104-0.257c0.828-0.109,1.651-0.219,2.464-0.373
			c0.691-0.134,1.367-0.294,2.046-0.455c0.799-0.191,1.591-0.383,2.374-0.616c0.666-0.194,1.317-0.41,1.973-0.64
			c0.767-0.26,1.524-0.53,2.271-0.832c0.642-0.253,1.265-0.53,1.893-0.814c0.729-0.328,1.451-0.674,2.161-1.04
			c0.607-0.318,1.203-0.646,1.795-0.982c0.689-0.396,1.374-0.811,2.043-1.242c0.571-0.362,1.131-0.742,1.686-1.129
			c0.652-0.459,1.287-0.941,1.909-1.431c0.529-0.418,1.056-0.838,1.567-1.276c0.606-0.514,1.188-1.058,1.766-1.605
			c0.486-0.465,0.97-0.927,1.441-1.406c0.556-0.575,1.084-1.174,1.611-1.776c0.442-0.506,0.883-1.006,1.299-1.529
			c0.505-0.626,0.979-1.28,1.448-1.934c0.39-0.537,0.785-1.074,1.15-1.633c0.448-0.677,0.859-1.386,1.271-2.091
			c0.333-0.571,0.677-1.132,0.989-1.714c0.388-0.736,0.732-1.496,1.086-2.252c0.274-0.589,0.565-1.17,0.813-1.772
			c0.329-0.798,0.602-1.608,0.886-2.423c0.21-0.6,0.441-1.191,0.631-1.804c0.262-0.862,0.465-1.749,0.676-2.632
			c0.144-0.592,0.315-1.167,0.435-1.766c0.2-0.992,0.325-2.006,0.462-3.019c0.07-0.51,0.172-1.013,0.221-1.529
			c0.154-1.544,0.239-3.104,0.239-4.682c0-1.701-0.116-3.385-0.291-5.044c-0.056-0.511-0.14-1.021-0.21-1.53
			c-0.163-1.163-0.361-2.318-0.611-3.461c-0.118-0.549-0.245-1.097-0.381-1.639c-0.298-1.167-0.648-2.317-1.034-3.448
			c-0.147-0.431-0.27-0.87-0.431-1.297c-0.571-1.528-1.213-3.025-1.942-4.483c-0.132-0.262-0.291-0.511-0.426-0.773
			c-0.625-1.191-1.297-2.354-2.022-3.487c-0.294-0.459-0.609-0.904-0.919-1.349c-0.648-0.936-1.324-1.845-2.043-2.731
			c-0.354-0.438-0.703-0.873-1.071-1.3c-0.21-0.238-0.394-0.5-0.607-0.736h127.189v32.921c-0.548,0.03-1.074,0.12-1.615,0.164
			c-0.958,0.072-1.909,0.171-2.857,0.287c-1.14,0.145-2.269,0.318-3.392,0.518c-0.917,0.167-1.827,0.342-2.737,0.54
			c-1.123,0.254-2.228,0.548-3.326,0.859c-0.87,0.243-1.739,0.486-2.588,0.767c-1.108,0.366-2.189,0.78-3.265,1.201
			c-0.808,0.314-1.622,0.619-2.412,0.962c-1.092,0.479-2.149,1.013-3.21,1.55c-0.732,0.366-1.482,0.722-2.2,1.119
			c-1.096,0.612-2.149,1.28-3.211,1.954c-0.629,0.396-1.279,0.773-1.896,1.197c-1.17,0.798-2.282,1.663-3.395,2.536
			c-0.459,0.362-0.938,0.688-1.386,1.064c-3.077,2.553-5.917,5.39-8.471,8.47c-0.376,0.455-0.711,0.944-1.081,1.41
			c-0.862,1.102-1.725,2.207-2.519,3.363c-0.425,0.627-0.801,1.277-1.205,1.917c-0.664,1.054-1.334,2.104-1.943,3.192
			c-0.4,0.723-0.753,1.469-1.126,2.204c-0.537,1.062-1.071,2.118-1.543,3.207c-0.35,0.794-0.654,1.602-0.966,2.412
			c-0.424,1.081-0.838,2.163-1.204,3.271c-0.274,0.849-0.517,1.708-0.76,2.57c-0.315,1.105-0.612,2.221-0.862,3.354
			c-0.205,0.894-0.373,1.797-0.537,2.7c-0.202,1.137-0.384,2.279-0.527,3.433c-0.113,0.931-0.209,1.868-0.284,2.81
			c-0.044,0.551-0.137,1.092-0.167,1.643H7.008V140.833z M111.994,156.407c0.023-0.417,0.027-0.835,0.062-1.249
			c0.068-0.828,0.164-1.649,0.267-2.461c0.13-1.033,0.284-2.057,0.473-3.072c0.144-0.801,0.301-1.592,0.479-2.379
			c0.229-1.01,0.492-2.006,0.772-2.994c0.22-0.764,0.438-1.52,0.685-2.266c0.325-0.982,0.691-1.951,1.068-2.909
			c0.28-0.715,0.554-1.431,0.862-2.132c0.424-0.969,0.896-1.909,1.372-2.848c0.332-0.656,0.646-1.313,1.003-1.953
			c0.54-0.966,1.136-1.906,1.728-2.841c0.359-0.562,0.695-1.14,1.071-1.69c0.705-1.03,1.472-2.016,2.245-2.994
			c0.321-0.407,0.616-0.842,0.948-1.242c2.269-2.731,4.787-5.25,7.519-7.519c0.41-0.343,0.842-0.641,1.259-0.962
			c0.979-0.767,1.958-1.529,2.984-2.234c0.555-0.377,1.129-0.712,1.69-1.071c0.938-0.596,1.872-1.188,2.848-1.725
			c0.633-0.359,1.293-0.671,1.943-1c0.938-0.482,1.886-0.951,2.854-1.382c0.698-0.305,1.413-0.579,2.125-0.859
			c0.962-0.373,1.927-0.742,2.912-1.067c0.746-0.25,1.506-0.469,2.266-0.685c0.985-0.281,1.981-0.537,2.991-0.771
			c0.787-0.181,1.58-0.339,2.382-0.485c1.013-0.188,2.039-0.343,3.072-0.469c0.815-0.104,1.63-0.202,2.458-0.268
			c0.414-0.037,0.838-0.041,1.252-0.064v53.588h-53.591V156.407z"/>
	</g>
</g>
</svg>